<?xml version="1.0" encoding="UTF-8"?>
<svg xmlns="http://www.w3.org/2000/svg" id="Ebene_1" data-name="Ebene 1" width="220" height="60" viewBox="0 0 220 60">
  <defs>
    <style>
      .cls-1 {
        fill: #5700c3;
      }

      .cls-2 {
        fill: #3ff2fd;
      }

      .cls-3 {
        fill: #ff3b68;
      }
    </style>
  </defs>
  <g>
    <g>
      <path class="cls-1" d="M57.74,24.55,35.45,2.26a7.71,7.71,0,0,0-10.9,0L2.26,24.55a7.71,7.71,0,0,0,0,10.9L24.55,57.74a7.71,7.71,0,0,0,10.9,0L57.74,35.45a7.71,7.71,0,0,0,0-10.9Z"/>
      <path class="cls-2" d="M32.75,46.09,47.51,31.31A1.82,1.82,0,0,0,47.77,29l-.18-.22a1.78,1.78,0,0,0-2.51,0L30,40.31,14.92,28.76a2,2,0,0,0-.45-.32,1.78,1.78,0,0,0-2.39.77,1.82,1.82,0,0,0,.43,2.11L27.27,46.09a3.88,3.88,0,0,0,5.48,0Z"/>
      <path class="cls-3" d="M38.11,21.73A8.11,8.11,0,1,0,30,29.84a8.11,8.11,0,0,0,8.11-8.11Zm-4.27,0A3.84,3.84,0,1,1,30,17.89a3.84,3.84,0,0,1,3.84,3.84Z"/>
    </g>
    <path class="cls-3" d="M97.63,14.55v3.13a12.79,12.79,0,0,0-9.23-3.84c-7.69,0-13.48,6.39-13.48,14.9S80.71,43.65,88.4,43.65a12.79,12.79,0,0,0,9.23-3.84v3.13h7.1V14.55ZM89.82,37.26a8.52,8.52,0,1,1,8.52-8.52,8.47,8.47,0,0,1-8.52,8.52Zm33.77,0h-5v-17h4.61V14.55h-4.61V9.82h-7.1V42.94h12.06V37.26Zm5.62,5.68h7.1V14.55h-7.1V42.94Zm3.55-33.71a4.62,4.62,0,1,0-4.61-4.62,4.62,4.62,0,0,0,4.61,4.62ZM159,13.84a11.14,11.14,0,0,0-8.52,3.37V14.55h-7.09V42.94h7.09V28.74c0-5.44,2.43-8.51,6.75-8.51S164,23.3,164,28.74v14.2h7.1V28.74c0-9.58-4.32-14.9-12.07-14.9Zm39.21.71v3.13A12.75,12.75,0,0,0,189,13.84c-7.69,0-13.49,6.39-13.49,14.9s5.8,14.91,13.49,14.91a12.75,12.75,0,0,0,9.22-3.84V51.46H183.68v5.67h21.65V14.55Zm-7.8,22.71a8.52,8.52,0,1,1,8.51-8.52,8.48,8.48,0,0,1-8.51,8.52Zm21.41,5.68h7.1V14.55h-7.1V42.94Zm3.55-33.71a4.62,4.62,0,1,0-4.62-4.62,4.62,4.62,0,0,0,4.62,4.62Z"/>
  </g>
<script xmlns=""/></svg>